
<!-- Created with Inkscape (http://www.inkscape.org/) -->

<svg
   xmlns:dc="http://purl.org/dc/elements/1.1/"
   xmlns:cc="http://creativecommons.org/ns#"
   xmlns:rdf="http://www.w3.org/1999/02/22-rdf-syntax-ns#"
   xmlns:svg="http://www.w3.org/2000/svg"
   xmlns="http://www.w3.org/2000/svg"
   xmlns:sodipodi="http://sodipodi.sourceforge.net/DTD/sodipodi-0.dtd"
   xmlns:inkscape="http://www.inkscape.org/namespaces/inkscape"
   viewBox="0 0 512 512"
   version="1.1"
   id="svg1128"
   inkscape:version="0.92.3 (2405546, 2018-03-11)"
   sodipodi:docname="market.svg">
  <defs
     id="defs1122" />
  <sodipodi:namedview
     id="base"
     pagecolor="#C5E1A5"
     bordercolor="#C5E1A5"
     borderopacity="1.0"
     inkscape:pageopacity="0.0"
     inkscape:pageshadow="2"
     inkscape:zoom="0.36"
     inkscape:cx="396.85039"
     inkscape:cy="1116.8154"
     inkscape:document-units="mm"
     inkscape:current-layer="layer1"
     showgrid="false"
     inkscape:window-width="1853"
     inkscape:window-height="1025"
     inkscape:window-x="67"
     inkscape:window-y="27"
     inkscape:window-maximized="1" />
  <metadata
     id="metadata1125">
    <rdf:RDF>
      <cc:Work
         rdf:about="">
        <dc:format>image/svg+xml</dc:format>
        <dc:type
           rdf:resource="http://purl.org/dc/dcmitype/StillImage" />
        <dc:title></dc:title>
      </cc:Work>
    </rdf:RDF>
  </metadata>
  <g
     inkscape:label="Capa 1"
     inkscape:groupmode="layer"
     id="layer1"
     transform="translate(0,215)">
    <g
       id="g54"
       transform="matrix(3.7008562,0,0,-3.7008562,227.78772,265.08673)">
      <path
         d="M 0,0 V 4 H 54 C 54,1.794 52.206,0 50,0 Z M -24,28 H -4 V 0 H -24 Z M -34,0 c -2.206,0 -4,1.794 -4,4 h 10 V 0 Z m -12,60 v 10 h 12 V 60 c 0,-3.309 -2.691,-6 -6,-6 -3.309,0 -6,2.691 -6,6 m 9.445,25.563 C -35.704,86.838 -33.533,88 -32,88 H 8 v 4 H -6 v 4 h 28 v -4 -2 -2 h 26 c 1.533,0 3.704,-1.162 4.555,-2.437 L 60.263,74 H 48 32 16 0 -16 -32 -44.263 Z M -21,102 v 16 c 0,1.103 0.897,2 2,2 h 54 c 1.103,0 2,-0.897 2,-2 v -16 c 0,-1.103 -0.897,-2 -2,-2 h -54 c -1.103,0 -2,0.897 -2,2 M 62,60 c 0,-3.309 -2.691,-6 -6,-6 -3.309,0 -6,2.691 -6,6 V 70 H 62 Z M 34,70 H 46 V 60 c 0,-3.309 -2.691,-6 -6,-6 -3.309,0 -6,2.691 -6,6 z M 18,70 H 30 V 60 c 0,-3.309 -2.691,-6 -6,-6 -3.309,0 -6,2.691 -6,6 z M 2,70 H 14 V 60 c 0,-3.309 -2.691,-6 -6,-6 -3.309,0 -6,2.691 -6,6 z m -16,0 H -2 V 60 c 0,-3.309 -2.691,-6 -6,-6 -3.309,0 -6,2.691 -6,6 z m -16,0 h 12 V 60 c 0,-3.309 -2.691,-6 -6,-6 -3.309,0 -6,2.691 -6,6 z M -4,32 h -20 v 2 c 0,1.103 0.897,2 2,2 h 16 c 1.103,0 2,-0.897 2,-2 z M 54,8 H 0 v 20 4 2 c 0,3.309 -2.691,6 -6,6 h -16 c -3.309,0 -6,-2.691 -6,-6 V 32 28 8 h -10 v 42.202 c 2.443,0.497 4.557,1.896 6,3.824 1.825,-2.438 4.727,-4.026 8,-4.026 3.273,0 6.175,1.588 8,4.026 1.825,-2.438 4.727,-4.026 8,-4.026 3.273,0 6.175,1.588 8,4.026 C 1.825,51.588 4.727,50 8,50 c 3.273,0 6.175,1.588 8,4.026 C 17.825,51.588 20.727,50 24,50 c 3.273,0 6.175,1.588 8,4.026 C 33.825,51.588 36.727,50 40,50 c 3.273,0 6.175,1.588 8,4.026 1.443,-1.928 3.557,-3.327 6,-3.824 z m 4,42.202 c 4.559,0.929 8,4.969 8,9.798 v 12 c 0,0.41 -0.125,1 -0.337,1 h 0.001 l -0.005,0.062 c 0,0.001 -0.001,0.029 -0.002,0.03 L 55.883,87.768 C 54.279,90.173 50.891,92 48,92 H 26 v 4 h 9 c 3.309,0 6,2.691 6,6 v 16 c 0,3.309 -2.691,6 -6,6 h -54 c -3.309,0 -6,-2.691 -6,-6 v -16 c 0,-3.309 2.691,-6 6,-6 h 9 v -4 h -22 c -2.891,0 -6.279,-1.813 -7.883,-4.219 l -9.774,-14.662 c -0.001,-0.001 -0.002,-0.056 -0.002,-0.057 L -49.664,73 h 0.001 C -49.875,73 -50,72.41 -50,72 V 60 c 0,-4.829 3.441,-8.869 8,-9.798 V 4 c 0,-1.458 0.398,-2.822 1.083,-4 H -48 v -4 h 14 6 28 50 14 V 0 H 56.917 C 57.602,1.178 58,2.542 58,4 Z"
         style="fill:#C5E1A5;fill-opacity:1;fill-rule:nonzero;stroke:none"
         id="path56"
         inkscape:connector-curvature="0" />
    </g>
    <g
       id="g58"
       transform="matrix(3.7008562,0,0,-3.7008562,401.72801,202.17221)">
      <path
         d="m 0,0 c 0,-1.1 -0.9,-2 -2,-2 h -36 c -1.1,0 -2,0.9 -2,2 v 21 c 0,1.1 0.9,2 2,2 h 36 c 1.1,0 2,-0.9 2,-2 z"
         style="fill:#e0e0e0;fill-opacity:1;fill-rule:nonzero;stroke:none"
         id="path60"
         inkscape:connector-curvature="0"/>
    </g>
    <path
       d="m 201.88176,228.07825 h -14.80343 v -29.60693 h 14.80343 z"
       style="fill:#C5E1A5;fill-opacity:1;fill-rule:nonzero;stroke:none;stroke-width:3.70085597"
       id="path62"
       inkscape:connector-curvature="0" />
    <path
       d="M 316.6083,-149.40911 H 198.18089 v -14.80342 H 316.6083 Z"
       style="fill:#C5E1A5;fill-opacity:1;fill-rule:nonzero;stroke:none;stroke-width:3.70085597"
       id="path64"
       inkscape:connector-curvature="0" />
    <path
       d="m 290.70225,-119.80218 h -66.61531 v -14.80352 h 66.61531 z"
       style="fill:#C5E1A5;fill-opacity:1;fill-rule:nonzero;stroke:none;stroke-width:3.70085597"
       id="path66"
       inkscape:connector-curvature="0" />
  </g>
</svg>
